<svg preserveAspectRatio="none" width="100%" height="100%" overflow="visible" style="display: block;" viewBox="0 0 32.2 32.2" fill="none" xmlns="http://www.w3.org/2000/svg">
<g id="IconSmartwatch1">
<path id="Vector" fill-rule="evenodd" clip-rule="evenodd" d="M9.15477 3.17647C9.52001 2.08076 10.5454 1.34169 11.7004 1.34169H20.4996C21.6547 1.34169 22.6801 2.08076 23.0453 3.17647L23.818 5.49435C25.5522 5.94233 26.8334 7.51741 26.8334 9.39169V22.8084C26.8334 24.6827 25.5522 26.2578 23.818 26.7056L23.0453 29.0236C22.6801 30.1192 21.6547 30.8584 20.4996 30.8584H11.7004C10.5454 30.8584 9.52001 30.1192 9.15477 29.0236L8.38214 26.7058C6.64781 26.2578 5.36671 24.6827 5.36671 22.8084V9.39169C5.36671 7.51739 6.64781 5.94232 8.38214 5.49435L9.15477 3.17647ZM11.2532 26.8334L11.7004 28.175H20.4996L20.9469 26.8334H11.2532ZM20.4996 4.02502L20.9469 5.36669H11.2532L11.7004 4.02502H20.4996ZM17.4417 12.075C17.4417 11.334 16.841 10.7334 16.1 10.7334C15.359 10.7334 14.7584 11.334 14.7584 12.075V16.1C14.7584 16.4558 14.8998 16.7972 15.1513 17.0487L17.1638 19.0612C17.6878 19.5851 18.5373 19.5851 19.0612 19.0612C19.5852 18.5373 19.5852 17.6877 19.0612 17.1638L17.4417 15.5443V12.075Z" fill="var(--fill-0, white)"/>
</g>
</svg>
