<svg preserveAspectRatio="none" width="100%" height="100%" overflow="visible" style="display: block;" viewBox="0 0 25.2 25.2" fill="none" xmlns="http://www.w3.org/2000/svg">
<g id="IconSparkle2">
<path id="Vector" d="M13.6057 2.84826C13.4724 2.40413 13.0636 2.09998 12.6 2.09998C12.1363 2.09998 11.7275 2.40413 11.5943 2.84826C10.8389 5.36596 9.85985 7.16142 8.51063 8.51063C7.16141 9.85985 5.36595 10.8389 2.84825 11.5943C2.40412 11.7275 2.09997 12.1363 2.09997 12.6C2.09997 13.0637 2.40412 13.4724 2.84825 13.6057C5.36595 14.361 7.16141 15.3401 8.51063 16.6893C9.85985 18.0386 10.8389 19.8339 11.5943 22.3516C11.7275 22.7958 12.1363 23.1 12.6 23.1C13.0636 23.1 13.4724 22.7958 13.6057 22.3516C14.361 19.8339 15.34 18.0386 16.6893 16.6893C18.0385 15.3401 19.8339 14.361 22.3516 13.6057C22.7958 13.4724 23.1 13.0637 23.1 12.6C23.1 12.1363 22.7958 11.7275 22.3516 11.5943C19.8339 10.8389 18.0385 9.85985 16.6893 8.51063C15.34 7.16142 14.361 5.36596 13.6057 2.84826Z" fill="var(--fill-0, white)"/>
</g>
</svg>
