<svg viewBox="0 0 186.77 26.4061" fill="#072B18" xmlns="http://www.w3.org/2000/svg">
<g id="Layer_1">
<g id="Group">
<g id="Vector">
<path d="M22.6183 0.640288L39.6133 0.598855L39.6237 4.91484L27.3825 4.94246L27.3928 10.5463L37.7596 10.5222L37.77 14.7311L27.4032 14.7553L27.4171 20.5663L39.6618 20.5352L39.6722 24.8512L22.6738 24.8927L22.6183 0.640288Z" fill="var(--fill-0, #072B18)"/>
<path d="M78.1835 25.1032C71.8256 25.1032 68.1702 21.2188 68.1529 14.4479L68.1182 0.529727L72.872 0.519369L72.9066 14.5722C72.917 18.5015 74.8434 20.7527 78.1905 20.7527H78.2078C79.8813 20.7492 81.1945 20.2037 82.1057 19.1368C83.0239 18.0595 83.4882 16.5161 83.4812 14.548L83.4466 0.495199L88.235 0.484841L88.2696 14.403C88.2766 17.7729 87.3965 20.4247 85.6502 22.2857C83.9005 24.1502 81.4023 25.0998 78.2182 25.1067H78.1801L78.1835 25.1032Z" fill="var(--fill-0, #072B18)"/>
<path d="M111.779 10.7638C111.772 7.39389 112.652 4.74215 114.398 2.8811C116.148 1.01659 118.646 0.0670764 121.83 0.0601708H121.868C128.226 0.0601708 131.881 3.94455 131.899 10.7155L131.933 24.6336L127.18 24.644L127.145 10.5912C127.135 6.6619 125.208 4.41068 121.861 4.41068H121.844C118.483 4.41759 116.56 6.67916 116.57 10.6153L116.605 24.6682L111.817 24.6785L111.782 10.7604L111.779 10.7638Z" fill="var(--fill-0, #072B18)"/>
<path d="M91.8492 0.474712L108.844 0.433278L108.854 4.74926L96.6133 4.77688L96.6271 10.3808L106.99 10.3566L107.001 14.569L96.6375 14.5932L96.6514 20.4007L108.893 20.3731L108.903 24.6856L91.9081 24.7271L91.8492 0.474712Z" fill="var(--fill-0, #072B18)"/>
<path d="M146.42 24.941C139.39 24.941 134.466 19.824 134.449 12.5006C134.431 5.15657 139.345 0.0188264 146.395 0.0015625H146.434C152.611 0.0015625 157.161 3.72367 157.757 9.26193L153.117 9.31373C152.625 6.33742 150.065 4.48673 146.434 4.48673H146.406C144.382 4.49018 142.546 5.29468 141.236 6.74831C139.92 8.20538 139.199 10.246 139.206 12.4868C139.216 17.1032 142.255 20.4559 146.43 20.4559H146.447C149.86 20.449 152.542 18.4947 153.128 15.5909L157.767 15.6289C157.057 21.2707 152.618 24.9238 146.458 24.9376H146.423L146.42 24.941Z" fill="var(--fill-0, #072B18)"/>
<path d="M160.286 0.312338L177.281 0.270905L177.291 4.58689L165.05 4.61451L165.06 10.2184L175.427 10.1942L175.437 14.4032L165.071 14.4308L165.084 20.2384L177.329 20.2107L177.34 24.5233L160.341 24.5647L160.286 0.312338Z" fill="var(--fill-0, #072B18)"/>
<path d="M10.339 25.2658C7.21029 25.2658 4.5701 24.4164 2.6991 22.8109C1.07756 21.4159 0.117804 19.5238 0 17.4901L4.80224 17.4556C5.04131 20.0417 7.80971 21.1984 10.4464 21.1984H10.4707C12.8025 21.1915 15.1586 20.2869 15.1551 18.5708C15.1517 16.6407 12.5357 15.7326 9.50747 14.683C5.42591 13.2639 0.800374 11.6584 0.789979 7.13866C0.779585 3.14033 4.49734 0.340121 9.82623 0.32631H9.86088C15.2799 0.32631 19.1016 3.28535 19.3649 7.69456L14.4448 7.73599C14.1122 5.26725 11.7631 4.39024 9.85049 4.39024H9.83663C8.75907 4.39024 7.68844 4.64575 6.89499 5.0877C6.29558 5.41917 5.58529 6.0096 5.58529 6.92113C5.59222 9.14818 8.49228 10.0701 11.5621 11.0438C15.5605 12.3144 20.0925 13.7507 20.1064 18.2497C20.1098 20.3076 19.1778 22.0685 17.4107 23.3357C15.6575 24.5925 13.2252 25.2589 10.3806 25.2658H10.339Z" fill="var(--fill-0, #072B18)"/>
<path d="M53.2786 25.176C46.2485 25.176 41.325 20.0589 41.3077 12.7321C41.3008 9.18612 42.4788 5.99229 44.6304 3.73762C46.7821 1.48295 49.845 0.239949 53.2544 0.22959H53.289C60.3192 0.22959 65.2427 5.34662 65.26 12.6734C65.2669 16.2194 64.0889 19.4133 61.9372 21.6679C59.7856 23.9226 56.7227 25.1656 53.3133 25.176H53.2786ZM53.2648 4.71821C49.0793 4.72857 46.051 8.09158 46.0614 12.7183C46.0718 17.3347 49.1105 20.6873 53.2856 20.6873H53.3029C55.3263 20.6839 57.1627 19.8794 58.4759 18.4258C59.7925 16.9652 60.5132 14.9281 60.5063 12.6838C60.4959 8.06741 57.4572 4.71821 53.2821 4.71821H53.2648Z" fill="var(--fill-0, #072B18)"/>
<path d="M62.2625 26.4061L65.2442 23.4202L55.408 13.666L52.4263 16.6519L62.2625 26.4061Z" fill="var(--fill-0, #072B18)"/>
</g>
</g>
<path id="Vector_2" d="M180.492 0.269336H182.927V0.790707H182.037V3.21111H181.403V0.790707H180.488V0.269336H180.492ZM186.766 0.269336V3.21111H186.143V0.932271L185.301 3.21111H184.895L184.043 0.925365V3.21111H183.419V0.269336H184.372L185.1 2.31684L185.824 0.269336H186.77H186.766Z" fill="var(--fill-0, #072B18)"/>
</g>
</svg>
