<?xml version="1.0" encoding="UTF-8"?>
<svg id="Layer_2" data-name="Layer 2" xmlns="http://www.w3.org/2000/svg" viewBox="0 0 551.19 82.34">
  <defs>
    <style>
      .cls-1 {
        fill: #fff;
      }
    </style>
  </defs>
  <g id="Layer_1" data-name="Layer 1">
    <g>
      <polygon class="cls-1" points="70.3 1.99 123.12 1.86 123.15 15.32 85.1 15.41 85.14 32.89 117.36 32.81 117.39 45.94 85.18 46.02 85.22 64.14 123.27 64.05 123.3 77.5 70.48 77.63 70.3 1.99"/>
      <path class="cls-1" d="M243,78.29c-19.76,0-31.12-12.11-31.18-33.23l-.1-43.41,14.78-.04.11,43.83c.03,12.25,6.02,19.28,16.43,19.28h.06c5.2-.01,9.28-1.71,12.11-5.04,2.85-3.35,4.29-8.17,4.28-14.31l-.11-43.83,14.88-.04.1,43.41c.03,10.51-2.71,18.78-8.14,24.59-5.43,5.81-13.21,8.77-23.1,8.8h-.12Z"/>
      <path class="cls-1" d="M347.42,33.57c-.03-10.51,2.71-18.78,8.14-24.59,5.43-5.81,13.21-8.77,23.1-8.8h.12c19.76,0,31.12,12.11,31.18,33.23l.1,43.41-14.78.04-.1-43.83c-.03-12.25-6.02-19.28-16.43-19.28h-.06c-10.44.03-16.42,7.08-16.39,19.36l.11,43.83-14.88.04-.1-43.41Z"/>
      <polygon class="cls-1" points="285.48 1.48 338.3 1.35 338.33 14.81 300.28 14.9 300.32 32.37 332.54 32.3 332.57 45.43 300.36 45.51 300.4 63.63 338.45 63.54 338.48 76.99 285.66 77.12 285.48 1.48"/>
      <path class="cls-1" d="M455.09,77.79c-21.85,0-37.15-15.96-37.2-38.8C417.83,16.08,433.1.05,455.01,0h.12c19.2,0,33.34,11.61,35.2,28.88l-14.42.16c-1.53-9.28-9.49-15.05-20.78-15.05h-.08c-6.29.02-12,2.52-16.07,7.06-4.09,4.55-6.33,10.91-6.31,17.9.03,14.4,9.48,24.85,22.45,24.85h.06c10.6-.03,18.95-6.12,20.76-15.17l14.42.12c-2.21,17.59-16.01,28.99-35.15,29.04h-.11Z"/>
      <polygon class="cls-1" points="498.18 .97 551.01 .84 551.04 14.3 512.99 14.39 513.03 31.87 545.25 31.79 545.28 44.92 513.06 45 513.11 63.12 551.16 63.03 551.19 76.48 498.37 76.61 498.18 .97"/>
      <path class="cls-1" d="M32.14,78.8c-9.72,0-17.93-2.65-23.74-7.66C3.35,66.79.37,60.89,0,54.54l14.93-.1c.74,8.06,9.34,11.67,17.54,11.67h.07c7.24-.02,14.57-2.84,14.55-8.19-.01-6.02-8.14-8.85-17.55-12.13-12.68-4.42-27.06-9.42-27.09-23.53C2.43,9.79,13.98,1.05,30.54,1.01h.11c16.85,0,28.72,9.23,29.54,22.98l-15.29.13c-1.03-7.7-8.34-10.44-14.28-10.44h-.05c-3.35,0-6.68.8-9.14,2.18-1.86,1.04-4.07,2.87-4.07,5.72.02,6.95,9.03,9.82,18.58,12.86,12.43,3.96,26.52,8.45,26.55,22.48.02,6.42-2.88,11.91-8.38,15.86-5.45,3.92-13.01,6-21.85,6.02h-.13Z"/>
      <path class="cls-1" d="M165.59,78.51c-21.85,0-37.15-15.96-37.2-38.81-.03-11.06,3.64-21.03,10.32-28.05,6.69-7.03,16.21-10.91,26.8-10.94h.11c21.85,0,37.15,15.96,37.2,38.81.03,11.06-3.64,21.03-10.32,28.05-6.69,7.03-16.21,10.91-26.8,10.94h-.11ZM165.55,14.71c-13.01.03-22.42,10.53-22.39,24.95.03,14.4,9.48,24.86,22.45,24.86h.06c6.29-.02,12-2.52,16.07-7.06,4.09-4.55,6.33-10.91,6.32-17.91-.03-14.4-9.48-24.85-22.45-24.85h-.06Z"/>
      <rect class="cls-1" x="176.3" y="40.91" width="13.13" height="43.13" transform="translate(356.14 -23.07) rotate(134.86)"/>
    </g>
  </g>
</svg>