<?xml version="1.0" encoding="UTF-8"?>
<svg id="Layer_2" data-name="Layer 2" xmlns="http://www.w3.org/2000/svg" viewBox="0 0 178.34 201.61">
  <defs>
    <style>
      .cls-1 {
        fill: #072b18;
      }
    </style>
  </defs>
  <g id="Layer_1" data-name="Layer 1">
    <g>
      <path class="cls-1" d="M0,147.49c-.03-12.81,3.31-22.89,9.92-29.97,6.62-7.09,16.09-10.69,28.15-10.72h.14c24.08,0,37.93,14.76,37.99,40.5l.13,52.9-18.01.04-.13-53.42c-.04-14.93-7.33-23.49-20.02-23.49h-.07c-12.73.03-20.01,8.63-19.97,23.59l.13,53.42-18.14.04L0,147.49Z"/>
      <path class="cls-1" d="M132.96,201.61c-26.63,0-45.28-19.45-45.34-47.29-.07-27.91,18.54-47.45,45.25-47.51h.14c23.4,0,40.63,14.14,42.89,35.2l-17.57.2c-1.86-11.31-11.56-18.34-25.32-18.34h-.1c-7.66.02-14.62,3.07-19.59,8.6-4.98,5.54-7.72,13.29-7.7,21.82.04,17.55,11.55,30.29,27.36,30.29h.07c12.92-.03,23.09-7.46,25.31-18.49l17.58.15c-2.69,21.44-19.51,35.33-42.84,35.39h-.13Z"/>
      <path class="cls-1" d="M39.32,95.16c-11.85,0-21.86-3.23-28.94-9.33C4.24,80.52.61,73.34.16,65.6l18.2-.13c.9,9.82,11.39,14.22,21.38,14.22h.09c8.83-.02,17.75-3.46,17.74-9.99-.02-7.33-9.92-10.78-21.39-14.78C20.71,49.54,3.19,43.44,3.15,26.25,3.11,11.06,17.19.41,37.38.36h.14c20.53,0,35,11.25,36.01,28l-18.63.15c-1.25-9.39-10.16-12.72-17.41-12.72h-.06c-4.08,0-8.14.98-11.14,2.65-2.27,1.26-4.97,3.5-4.96,6.97.02,8.47,11.01,11.97,22.64,15.67,15.15,4.83,32.32,10.3,32.36,27.39.02,7.83-3.51,14.51-10.21,19.33-6.64,4.78-15.85,7.32-26.64,7.34h-.16Z"/>
      <path class="cls-1" d="M132.96,94.81c-26.63,0-45.28-19.45-45.34-47.3-.03-13.48,4.44-25.62,12.58-34.18C108.35,4.77,119.96.03,132.87,0h.13c26.63,0,45.28,19.45,45.34,47.3.03,13.48-4.44,25.62-12.58,34.18-8.15,8.57-19.75,13.3-32.66,13.33h-.13ZM132.91,17.06c-15.85.04-27.33,12.83-27.29,30.41.04,17.55,11.55,30.29,27.36,30.29h.07c7.66-.02,14.62-3.07,19.59-8.6,4.98-5.55,7.72-13.3,7.7-21.82-.04-17.55-11.55-30.28-27.36-30.28h-.07Z"/>
      <rect class="cls-1" x="146.01" y="48.99" width="16.01" height="52.56" transform="translate(316 19.2) rotate(134.86)"/>
    </g>
  </g>
</svg>