<?xml version="1.0" encoding="UTF-8"?>
<svg id="Layer_3" data-name="Layer 3" xmlns="http://www.w3.org/2000/svg" viewBox="0 0 339.5 94.56">
  <defs>
    <style>
      .cls-1 {
        fill: #072b18;
      }
    </style>
  </defs>
  <g id="Layer_1" data-name="Layer 1">
    <g>
      <path class="cls-1" d="M175.03,38.55c-.03-12.07,3.12-21.57,9.35-28.24C190.62,3.63,199.54.24,210.9.21h.13c22.69,0,35.74,13.91,35.8,38.17l.12,49.85-16.97.04-.12-50.34c-.03-14.07-6.91-22.14-18.86-22.14h-.07c-11.99.03-18.86,8.13-18.82,22.23l.12,50.34-17.09.04-.12-49.85Z"/>
      <path class="cls-1" d="M299.01,89.33c-25.09,0-42.66-18.33-42.73-44.56C256.22,18.47,273.76.06,298.92,0h.13c22.05,0,38.29,13.33,40.42,33.16l-16.56.18c-1.75-10.66-10.9-17.28-23.86-17.28h-.09c-7.22.02-13.78,2.9-18.46,8.1-4.7,5.22-7.27,12.53-7.25,20.56.04,16.54,10.88,28.54,25.78,28.54h.07c12.18-.03,21.76-7.03,23.85-17.42l16.56.14c-2.54,20.2-18.38,33.29-40.37,33.35h-.12Z"/>
      <path class="cls-1" d="M36.91,90.49c-11.17,0-20.6-3.04-27.27-8.79C3.85,76.7.42,69.93,0,62.63l17.15-.12c.85,9.26,10.73,13.4,20.15,13.4h.08c8.32-.02,16.73-3.26,16.71-9.41-.02-6.91-9.35-10.16-20.16-13.93-14.57-5.07-31.07-10.82-31.11-27.02C2.78,11.24,16.05,1.21,35.08,1.16h.13c19.35,0,32.98,10.6,33.93,26.39l-17.56.14c-1.18-8.85-9.57-11.99-16.4-11.99h-.05c-3.84,0-7.67.92-10.5,2.5-2.14,1.19-4.68,3.3-4.67,6.57.02,7.98,10.37,11.28,21.34,14.77,14.27,4.55,30.45,9.7,30.49,25.81.02,7.38-3.31,13.68-9.62,18.22-6.26,4.5-14.94,6.89-25.1,6.92h-.15Z"/>
      <path class="cls-1" d="M120.95,90.16c-25.09,0-42.66-18.33-42.73-44.57-.03-12.71,4.18-24.15,11.86-32.21C97.76,5.31,108.7.85,120.86.82h.12c25.09,0,42.66,18.33,42.73,44.57.03,12.71-4.18,24.15-11.86,32.21-7.68,8.07-18.61,12.53-30.78,12.56h-.12ZM120.9,16.9c-14.94.04-25.75,12.09-25.71,28.66.04,16.54,10.88,28.54,25.78,28.54h.07c7.22-.02,13.78-2.9,18.46-8.11,4.7-5.23,7.27-12.53,7.25-20.56-.04-16.53-10.88-28.53-25.78-28.53h-.07Z"/>
      <rect class="cls-1" x="133.24" y="46.98" width="15.08" height="49.53" transform="translate(290.95 22.57) rotate(134.86)"/>
    </g>
  </g>
</svg>